<svg width="24" height="24" viewBox="0 0 512 512" fill="none" xmlns="http://www.w3.org/2000/svg">
	<circle opacity="0.8" cx="150" cy="362" r="134" stroke="currentColor" stroke-width="32">
	</circle>
	<circle cx="362" cy="362" r="134" stroke="currentColor" stroke-width="32">
	</circle>
	<circle cx="256" cy="150" r="134" stroke="currentColor" stroke-width="32">
	</circle>
	<path d="M269.48 196L248.456 157.84H242.552V196H217.928V94.912H259.256C267.224 94.912 273.992 96.304 279.56 99.088C285.224 101.872 289.448 105.712 292.232 110.608C295.016 115.408 296.408 120.784 296.408 126.736C296.408 133.456 294.488 139.456 290.648 144.736C286.904 150.016 281.336 153.76 273.944 155.968L297.272 196H269.48ZM242.552 140.416H257.816C262.328 140.416 265.688 139.312 267.896 137.104C270.2 134.896 271.352 131.776 271.352 127.744C271.352 123.904 270.2 120.88 267.896 118.672C265.688 116.464 262.328 115.36 257.816 115.36H242.552V140.416Z" fill="currentColor">
	</path>
	<path d="M171.032 342.88C169.208 339.52 166.568 336.976 163.112 335.248C159.752 333.424 155.768 332.512 151.16 332.512C143.192 332.512 136.808 335.152 132.008 340.432C127.208 345.616 124.808 352.576 124.808 361.312C124.808 370.624 127.304 377.92 132.296 383.2C137.384 388.384 144.344 390.976 153.176 390.976C159.224 390.976 164.312 389.44 168.44 386.368C172.664 383.296 175.736 378.88 177.656 373.12H146.408V354.976H199.976V377.872C198.152 384.016 195.032 389.728 190.616 395.008C186.296 400.288 180.776 404.56 174.056 407.824C167.336 411.088 159.752 412.72 151.304 412.72C141.32 412.72 132.392 410.56 124.52 406.24C116.744 401.824 110.648 395.728 106.232 387.952C101.912 380.176 99.752 371.296 99.752 361.312C99.752 351.328 101.912 342.448 106.232 334.672C110.648 326.8 116.744 320.704 124.52 316.384C132.296 311.968 141.176 309.76 151.16 309.76C163.256 309.76 173.432 312.688 181.688 318.544C190.04 324.4 195.56 332.512 198.248 342.88H171.032Z" fill="currentColor">
	</path>
	<path d="M384.128 360.16C389.984 361.408 394.688 364.336 398.24 368.944C401.792 373.456 403.568 378.64 403.568 384.496C403.568 392.944 400.592 399.664 394.64 404.656C388.784 409.552 380.576 412 370.016 412H322.928V310.912H368.432C378.704 310.912 386.72 313.264 392.48 317.968C398.336 322.672 401.264 329.056 401.264 337.12C401.264 343.072 399.68 348.016 396.512 351.952C393.44 355.888 389.312 358.624 384.128 360.16ZM347.552 351.808H363.68C367.712 351.808 370.784 350.944 372.896 349.216C375.104 347.392 376.208 344.752 376.208 341.296C376.208 337.84 375.104 335.2 372.896 333.376C370.784 331.552 367.712 330.64 363.68 330.64H347.552V351.808ZM365.696 392.128C369.824 392.128 372.992 391.216 375.2 389.392C377.504 387.472 378.656 384.736 378.656 381.184C378.656 377.632 377.456 374.848 375.056 372.832C372.752 370.816 369.536 369.808 365.408 369.808H347.552V392.128H365.696Z" fill="currentColor">
	</path>
</svg>
